#N canvas 0 54 1280 746 10;
#X obj 941 822 cw_binaural~;
#X obj 765 924 dac~;
#X floatatom 1010 771 5 0 0 0 - - -;
#X text 1061 692 azimuth (degree);
#X obj 976 794 sig~;
#X obj 759 136 readsf~;
#X msg 689 96 start;
#X obj 689 67 delay 10;
#X msg 784 110 stop;
#X floatatom 976 771 5 0 0 0 - - -;
#X obj 1301 753 readsf~;
#X msg 1231 713 start;
#X obj 1231 684 delay 10;
#X msg 1326 717 stop;
#X msg 1231 656 bang;
#X obj 1010 794 sig~;
#X floatatom 1061 677 5 0 0 0 - - -;
#X obj 802 588 freeverb~;
#X msg 804 508 wet \$1;
#X floatatom 804 476 5 0 1 0 - - -;
#X floatatom 855 479 5 0 1 0 - - -;
#X msg 854 508 dry \$1;
#X floatatom 904 476 5 0 1 0 - - -;
#X floatatom 984 476 5 0 1 0 - - -;
#X msg 904 508 roomsize \$1;
#X msg 984 508 damping \$1;
#X obj 881 296 tb_compressorUI;
#X obj 757 385 tb_compressor~;
#X msg 1068 506 bypass 0;
#X text 880 712 comment;
#X obj 764 449 lop~;
#X floatatom 785 414 5 0 0 0 - - -;
#X floatatom 638 324 5 0 1 0 distance - -;
#X obj 638 379 *;
#X floatatom 662 347 5 0 0 0 dryParam - -;
#X floatatom 638 435 5 0 0 0 - - -;
#X obj 498 379 *;
#X floatatom 498 435 5 0 0 0 - - -;
#X obj 556 480 -;
#X floatatom 556 517 5 0 0 0 - - -;
#X floatatom 517 332 5 -1 1 0 wetParam - -;
#X obj 495 406 + 0.08;
#X msg 785 346 20000;
#X obj 785 318 loadbang;
#X obj 1063 736 *~ 360;
#X obj 517 290 loadbang;
#X msg 517 311 0.03;
#X obj 683 299 loadbang;
#X msg 683 320 1;
#X msg 1010 749 0;
#X msg 1302 687 open /home/denny/Downloads/temp/Sound/Ambience.wav
\;;
#X obj 1280 816 *~ 0.1;
#X floatatom 1313 793 5 0 1 0 - - -;
#X msg 689 36 bang;
#X obj 1835 292 bng 15 250 50 0 empty empty empty 17 7 0 10 -262144
-1 -1;
#X obj 1554 103 s play;
#X obj 689 10 r play;
#X msg 1622 103 0;
#X obj 1629 145 s azimuth;
#X obj 951 729 r azimuth;
#X obj 951 752 sig~;
#X obj 1794 324 bng 15 250 50 0 empty empty empty 17 7 0 10 -262144
-1 -1;
#X obj 1704 108 s play;
#X obj 1772 133 s azimuth;
#X msg 1772 108 45;
#X obj 1759 364 bng 15 250 50 0 empty empty empty 17 7 0 10 -262144
-1 -1;
#X obj 1856 120 s play;
#X obj 1924 145 s azimuth;
#X obj 1797 401 bng 15 250 50 0 empty empty empty 17 7 0 10 -262144
-1 -1;
#X obj 1580 147 s play;
#X obj 1654 145 s azimuth;
#X msg 1924 120 90;
#X msg 1655 120 135;
#X obj 1851 425 bng 15 250 50 0 empty empty empty 17 7 0 10 -262144
-1 -1;
#X obj 1587 193 s play;
#X obj 1655 218 s azimuth;
#X obj 1893 401 bng 15 250 50 0 empty empty empty 17 7 0 10 -262144
-1 -1;
#X obj 1717 193 s play;
#X obj 1785 218 s azimuth;
#X msg 1655 193 180;
#X msg 1785 193 225;
#X obj 1921 366 bng 15 250 50 0 empty empty empty 17 7 0 10 -262144
-1 -1;
#X obj 1858 191 s play;
#X obj 1926 216 s azimuth;
#X obj 1888 327 bng 15 250 50 0 empty empty empty 17 7 0 10 -262144
-1 -1;
#X obj 1588 191 s play;
#X obj 1656 216 s azimuth;
#X msg 1926 191 270;
#X obj 851 143 noise~;
#X msg 757 10 set open /home/denny/Downloads/temp/Sound/footstepsDryWave.wav
\;;
#X msg 1114 10 set open /home/denny/Downloads/temp/Sound/waterDryWave.wav
\;;
#X obj 1061 709 phasor~ 0.1;
#X msg 1133 740 360;
#X msg 1173 740 -360;
#X msg 1114 31 set open /home/denny/Downloads/temp/Sound/Swooosh1.wav
\;;
#X msg 827 409 500;
#X msg 827 430 1500;
#X msg 1114 51 set open /home/denny/Downloads/temp/Sound/setup.wav
\;;
#X msg 913 655 listen_db /home/denny/Downloads/temp/IRC_1012_C;
#X msg 826 453 20000;
#X msg 817 279 4523;
#X obj 1465 303 select 1 2 3 4 5;
#X obj 1465 257 random 5;
#X obj 1465 281 + 1;
#X obj 1465 210 tgl 15 0 empty empty empty 17 7 0 10 -262144 -1 -1
0 1;
#X obj 1465 232 metro 4000;
#X obj 133 823 cw_binaural~;
#X text 253 693 azimuth (degree);
#X obj 168 775 sig~;
#X obj -49 137 readsf~;
#X msg -119 97 start;
#X obj -119 68 delay 10;
#X msg -24 111 stop;
#X floatatom 168 752 5 0 0 0 - - -;
#X floatatom 253 678 5 0 0 0 - - -;
#X obj -6 589 freeverb~;
#X msg -4 509 wet \$1;
#X floatatom -4 477 5 0 1 0 - - -;
#X floatatom 47 480 5 0 1 0 - - -;
#X msg 46 509 dry \$1;
#X floatatom 96 477 5 0 1 0 - - -;
#X floatatom 176 477 5 0 1 0 - - -;
#X msg 96 509 roomsize \$1;
#X msg 176 509 damping \$1;
#X obj 73 297 tb_compressorUI;
#X obj -51 386 tb_compressor~;
#X msg 260 507 bypass 0;
#X text 31 618 comment;
#X obj -44 450 lop~;
#X floatatom -23 415 5 0 0 0 - - -;
#X floatatom -170 325 5 0 1 0 distance - -;
#X obj -170 380 *;
#X floatatom -146 348 5 0 0 0 dryParam - -;
#X floatatom -170 436 5 0 0 0 - - -;
#X obj -310 380 *;
#X floatatom -310 436 5 0 0 0 - - -;
#X obj -252 481 -;
#X floatatom -252 518 5 0 0 0 - - -;
#X floatatom -291 333 5 -1 1 0 wetParam - -;
#X obj -313 407 + 0.08;
#X msg -23 347 20000;
#X obj -23 319 loadbang;
#X obj 254 737 *~ 360;
#X obj -291 291 loadbang;
#X msg -291 312 0.03;
#X obj -125 300 loadbang;
#X msg -125 321 1;
#X msg -119 37 bang;
#X obj 247 795 sig~;
#X msg 306 11 set open /home/denny/Downloads/temp/Sound/waterDryWave.wav
\;;
#X obj 253 710 phasor~ 0.1;
#X msg 306 32 set open /home/denny/Downloads/temp/Sound/Swooosh1.wav
\;;
#X msg 19 410 500;
#X msg 19 431 1500;
#X msg 306 52 set open /home/denny/Downloads/temp/Sound/setup.wav \;
;
#X msg 133 654 listen_db /home/denny/Downloads/temp/IRC_1012_C;
#X msg 18 454 20000;
#X msg 9 280 4523;
#X obj 247 772 r azimuth2;
#X obj -119 11 r play2;
#X msg 638 294 0.61;
#X obj -170 270 loadbang;
#X obj 638 268 loadbang;
#X obj 133 629 loadbang;
#X obj 913 626 loadbang;
#X msg 759 70 open /home/denny/Downloads/temp/Sound/Swooosh1.wav;
#X obj 784 89 r stop;
#X obj -24 90 r stop2;
#X obj 253 607 loadbang;
#X obj 1376 746 loadbang;
#X obj 2186 206 select 1 2 3 4 5 6 7 8;
#X obj 2186 262 bng 15 250 50 0 empty empty empty 17 7 0 10 -262144
-1 -1;
#X obj 2206 262 bng 15 250 50 0 empty empty empty 17 7 0 10 -262144
-1 -1;
#X obj 2226 262 bng 15 250 50 0 empty empty empty 17 7 0 10 -262144
-1 -1;
#X obj 2246 262 bng 15 250 50 0 empty empty empty 17 7 0 10 -262144
-1 -1;
#X obj 2266 262 bng 15 250 50 0 empty empty empty 17 7 0 10 -262144
-1 -1;
#X obj 2286 262 bng 15 250 50 0 empty empty empty 17 7 0 10 -262144
-1 -1;
#X obj 2306 262 bng 15 250 50 0 empty empty empty 17 7 0 10 -262144
-1 -1;
#X obj 2326 262 bng 15 250 50 0 empty empty empty 17 7 0 10 -262144
-1 -1;
#X obj 2186 159 netreceive 3000;
#X msg 366 701 -360;
#X msg 406 701 360;
#X obj 366 677 r neg;
#X obj 417 677 r pos;
#X obj 1712 508 bng 15 250 50 0 empty empty empty 17 7 0 10 -262144
-1 -1;
#X obj 1712 529 delay 5000;
#X msg 1656 191 180;
#X msg 1376 767 0.05;
#X msg -51 11 set open /home/denny/Downloads/temp/Sound/footstepsDryWave.wav
\;;
#X msg -49 71 open /home/denny/Downloads/temp/Sound/footstepsDryWave.wav
;
#X msg -170 297 0.3;
#X msg 253 632 0.01;
#X obj -681 870 cw_binaural~;
#X text -557 692 azimuth (degree);
#X obj -642 774 sig~;
#X obj -859 136 readsf~;
#X msg -929 96 start;
#X obj -929 67 delay 10;
#X msg -834 110 stop;
#X floatatom -642 751 5 0 0 0 - - -;
#X floatatom -557 677 5 0 0 0 - - -;
#X obj -816 588 freeverb~;
#X msg -814 508 wet \$1;
#X floatatom -814 476 5 0 1 0 - - -;
#X floatatom -763 479 5 0 1 0 - - -;
#X msg -764 508 dry \$1;
#X floatatom -714 476 5 0 1 0 - - -;
#X floatatom -634 476 5 0 1 0 - - -;
#X msg -714 508 roomsize \$1;
#X msg -634 508 damping \$1;
#X obj -737 296 tb_compressorUI;
#X obj -861 385 tb_compressor~;
#X msg -550 506 bypass 0;
#X text -779 617 comment;
#X obj -854 449 lop~;
#X floatatom -833 414 5 0 0 0 - - -;
#X floatatom -980 324 5 0 1 0 distance - -;
#X obj -980 379 *;
#X floatatom -956 347 5 0 0 0 dryParam - -;
#X floatatom -980 435 5 0 0 0 - - -;
#X obj -1120 379 *;
#X floatatom -1120 435 5 0 0 0 - - -;
#X obj -1062 480 -;
#X floatatom -1062 517 5 0 0 0 - - -;
#X floatatom -1101 332 5 -1 1 0 wetParam - -;
#X obj -1123 406 + 0.08;
#X msg -833 346 20000;
#X obj -833 318 loadbang;
#X obj -556 736 *~ 360;
#X obj -1101 290 loadbang;
#X msg -1101 311 0.03;
#X obj -935 299 loadbang;
#X msg -935 320 1;
#X msg -929 36 bang;
#X obj -563 794 sig~;
#X msg -504 10 set open /home/denny/Downloads/temp/Sound/waterDryWave.wav
\;;
#X obj -557 709 phasor~ 0.1;
#X msg -504 31 set open /home/denny/Downloads/temp/Sound/Swooosh1.wav
\;;
#X msg -791 409 500;
#X msg -791 430 1500;
#X msg -677 653 listen_db /home/denny/Downloads/temp/IRC_1012_C;
#X msg -792 453 20000;
#X msg -801 279 4523;
#X obj -980 269 loadbang;
#X obj -677 628 loadbang;
#X obj -557 606 loadbang;
#X msg -444 700 -360;
#X msg -404 700 360;
#X obj -444 676 r neg;
#X obj -393 676 r pos;
#X msg -861 10 set open /home/denny/Downloads/temp/Sound/footstepsDryWave.wav
\;;
#X msg -859 70 open /home/denny/Downloads/temp/Sound/Grunt.wav;
#X msg -980 296 0.3;
#X text -1089 151 azimuth (degree);
#X floatatom -1089 136 5 0 0 0 - - -;
#X obj -1088 209 snapshot~;
#X obj -976 163 metro 100;
#X obj -976 139 tgl 15 0 empty empty empty 17 7 0 10 -262144 -1 -1
0 1;
#X obj -976 190 bng 15 250 50 0 empty empty empty 17 7 0 10 -262144
-1 -1;
#X floatatom -1019 243 5 0 0 0 - - -;
#X obj -1089 168 phasor~ 0.1;
#X msg -557 631 0.01;
#X obj -929 10 r play3;
#X obj -834 89 r stop3;
#X obj -563 771 r azimuth3;
#X msg -504 51 set open /home/denny/Downloads/temp/Sound/Grunt.wav
\;;
#X obj 1712 639 levelElement;
#X msg 1735 556 set 315;
#X msg 1758 581 set 0;
#X msg 1781 607 set 5000;
#X msg 1917 605 set 5000;
#X msg 1871 554 set 0;
#X obj -171 244 r distFoot;
#X obj -246 245 r distance;
#X text 1809 1076 azimuth (degree);
#X floatatom 1808 1061 5 0 0 0 - - -;
#X obj 1809 1134 snapshot~;
#X obj 1921 1088 metro 100;
#X obj 1921 1064 tgl 15 0 empty empty empty 17 7 0 10 -262144 -1 -1
0 1;
#X obj 1921 1115 bng 15 250 50 0 empty empty empty 17 7 0 10 -262144
-1 -1;
#X floatatom 1896 1167 5 0 0 0 - - -;
#X obj 1809 1167 clip 0 0.54;
#X obj 1808 1092 phasor~ 0.05;
#X msg 1764 1091 0;
#X obj 1809 1204 s distance;
#X msg 2024 1171 set 5000;
#X msg 1978 1120 set 0;
#X msg 2001 1145 set 90;
#X msg 2067 605 set 5000;
#X msg 2217 610 set 5000;
#X obj 1848 527 delay 1000;
#X obj 1998 527 delay 2000;
#X obj 2148 532 delay 4000;
#X msg 1894 579 set 45;
#X msg 2021 554 set 45;
#X msg 2171 559 set 135;
#X msg 2194 584 set 180;
#X msg 2044 579 set 225;
#X text 2145 507 right;
#X msg 2357 610 set 5000;
#X text 2285 508 front;
#X obj 2288 532 delay 2000;
#X msg 2311 559 set 0;
#X msg 2334 584 set 0;
#X text 1709 488 right 45;
#X text 1845 505 left 45;
#X text 1996 504 right;
#X obj 1848 637 levelElement;
#X obj 1955 1203 levelElement;
#X obj 1998 637 levelElement;
#X obj 2148 642 levelElement;
#X obj 2288 642 levelElement;
#X text 1647 671 compare with right input;
#X obj 1744 753 == 1;
#X text 2088 306 no-tilt makes everything 0;
#X msg 1765 676 0;
#X msg 1895 676 0;
#X msg 2050 676 0;
#X msg 2200 676 0;
#X msg 2340 676 0;
#X msg 1765 706 1;
#X msg 1895 706 1;
#X msg 2050 706 1;
#X msg 2200 706 1;
#X msg 2340 706 1;
#X obj 1874 753 == 1;
#X obj 2027 753 == 1;
#X obj 2177 753 == 1;
#X obj 2317 753 == 1;
#X obj 1744 782 select 0 1;
#X obj 1874 782 select 0 1;
#X obj 2027 782 select 0 1;
#X obj 2177 782 select 0 1;
#X obj 2317 782 select 0 1;
#X text 1624 819 play buzzer OR correct sound;
#X connect 0 0 1 0;
#X connect 0 1 1 1;
#X connect 2 0 15 0;
#X connect 4 0 0 1;
#X connect 5 0 27 0;
#X connect 6 0 5 0;
#X connect 7 0 6 0;
#X connect 8 0 5 0;
#X connect 9 0 4 0;
#X connect 10 0 51 0;
#X connect 10 1 14 0;
#X connect 11 0 10 0;
#X connect 12 0 11 0;
#X connect 13 0 10 0;
#X connect 14 0 12 0;
#X connect 14 0 50 0;
#X connect 15 0 0 2;
#X connect 16 0 91 0;
#X connect 17 0 0 0;
#X connect 18 0 17 0;
#X connect 19 0 18 0;
#X connect 20 0 21 0;
#X connect 21 0 17 0;
#X connect 22 0 24 0;
#X connect 23 0 25 0;
#X connect 24 0 17 0;
#X connect 25 0 17 0;
#X connect 26 0 27 1;
#X connect 27 0 30 0;
#X connect 27 1 26 0;
#X connect 28 0 17 0;
#X connect 30 0 17 0;
#X connect 30 0 17 1;
#X connect 31 0 30 1;
#X connect 32 0 33 0;
#X connect 32 0 36 0;
#X connect 33 0 21 0;
#X connect 33 0 35 0;
#X connect 34 0 33 1;
#X connect 35 0 38 1;
#X connect 36 0 41 0;
#X connect 37 0 38 0;
#X connect 38 0 39 0;
#X connect 40 0 36 1;
#X connect 41 0 37 0;
#X connect 41 0 18 0;
#X connect 42 0 31 0;
#X connect 43 0 42 0;
#X connect 45 0 46 0;
#X connect 46 0 40 0;
#X connect 47 0 48 0;
#X connect 48 0 34 0;
#X connect 49 0 2 0;
#X connect 50 0 10 0;
#X connect 51 0 1 0;
#X connect 51 0 1 1;
#X connect 52 0 51 1;
#X connect 53 0 7 0;
#X connect 53 0 165 0;
#X connect 54 0 55 0;
#X connect 54 0 57 0;
#X connect 56 0 53 0;
#X connect 57 0 58 0;
#X connect 59 0 60 0;
#X connect 60 0 0 1;
#X connect 61 0 62 0;
#X connect 61 0 64 0;
#X connect 64 0 63 0;
#X connect 65 0 66 0;
#X connect 65 0 71 0;
#X connect 68 0 69 0;
#X connect 68 0 72 0;
#X connect 71 0 67 0;
#X connect 72 0 70 0;
#X connect 73 0 74 0;
#X connect 73 0 79 0;
#X connect 76 0 77 0;
#X connect 76 0 80 0;
#X connect 79 0 75 0;
#X connect 80 0 78 0;
#X connect 81 0 82 0;
#X connect 81 0 87 0;
#X connect 84 0 85 0;
#X connect 84 0 186 0;
#X connect 87 0 83 0;
#X connect 89 0 165 0;
#X connect 90 0 165 0;
#X connect 91 0 44 0;
#X connect 92 0 44 1;
#X connect 93 0 44 1;
#X connect 94 0 165 0;
#X connect 95 0 31 0;
#X connect 96 0 31 0;
#X connect 97 0 165 0;
#X connect 98 0 0 0;
#X connect 99 0 31 0;
#X connect 100 0 31 0;
#X connect 101 0 65 0;
#X connect 101 1 61 0;
#X connect 101 2 54 0;
#X connect 101 3 84 0;
#X connect 101 4 81 0;
#X connect 102 0 103 0;
#X connect 103 0 101 0;
#X connect 104 0 105 0;
#X connect 105 0 102 0;
#X connect 106 0 1 0;
#X connect 106 1 1 1;
#X connect 108 0 106 1;
#X connect 109 0 125 0;
#X connect 109 1 147 0;
#X connect 110 0 109 0;
#X connect 111 0 110 0;
#X connect 112 0 109 0;
#X connect 113 0 108 0;
#X connect 114 0 150 0;
#X connect 115 0 106 0;
#X connect 116 0 115 0;
#X connect 117 0 116 0;
#X connect 118 0 119 0;
#X connect 119 0 115 0;
#X connect 120 0 122 0;
#X connect 121 0 123 0;
#X connect 122 0 115 0;
#X connect 123 0 115 0;
#X connect 124 0 125 1;
#X connect 125 0 128 0;
#X connect 125 1 124 0;
#X connect 126 0 115 0;
#X connect 128 0 115 0;
#X connect 128 0 115 1;
#X connect 129 0 128 1;
#X connect 130 0 131 0;
#X connect 130 0 134 0;
#X connect 131 0 119 0;
#X connect 131 0 133 0;
#X connect 132 0 131 1;
#X connect 133 0 136 1;
#X connect 134 0 139 0;
#X connect 135 0 136 0;
#X connect 136 0 137 0;
#X connect 138 0 134 1;
#X connect 139 0 135 0;
#X connect 139 0 116 0;
#X connect 140 0 129 0;
#X connect 141 0 140 0;
#X connect 142 0 106 1;
#X connect 143 0 144 0;
#X connect 144 0 138 0;
#X connect 145 0 146 0;
#X connect 146 0 132 0;
#X connect 147 0 111 0;
#X connect 147 0 189 0;
#X connect 148 0 106 1;
#X connect 149 0 189 0;
#X connect 150 0 142 0;
#X connect 151 0 189 0;
#X connect 152 0 129 0;
#X connect 153 0 129 0;
#X connect 154 0 189 0;
#X connect 155 0 106 0;
#X connect 156 0 129 0;
#X connect 157 0 129 0;
#X connect 158 0 148 0;
#X connect 159 0 147 0;
#X connect 160 0 32 0;
#X connect 161 0 190 0;
#X connect 162 0 160 0;
#X connect 163 0 155 0;
#X connect 164 0 98 0;
#X connect 165 0 5 0;
#X connect 166 0 8 0;
#X connect 167 0 112 0;
#X connect 168 0 191 0;
#X connect 169 0 187 0;
#X connect 170 0 171 0;
#X connect 170 1 172 0;
#X connect 170 2 173 0;
#X connect 170 3 174 0;
#X connect 170 4 175 0;
#X connect 170 5 176 0;
#X connect 170 6 177 0;
#X connect 170 7 178 0;
#X connect 179 0 170 0;
#X connect 182 0 180 0;
#X connect 183 0 181 0;
#X connect 184 0 14 0;
#X connect 184 0 185 0;
#X connect 185 0 266 0;
#X connect 185 0 267 0;
#X connect 185 0 268 0;
#X connect 185 0 269 0;
#X connect 186 0 86 0;
#X connect 187 0 52 0;
#X connect 188 0 189 0;
#X connect 189 0 109 0;
#X connect 190 0 130 0;
#X connect 191 0 114 0;
#X connect 192 0 1 0;
#X connect 192 1 1 1;
#X connect 194 0 192 1;
#X connect 195 0 211 0;
#X connect 196 0 195 0;
#X connect 197 0 196 0;
#X connect 198 0 195 0;
#X connect 199 0 194 0;
#X connect 200 0 236 0;
#X connect 201 0 192 0;
#X connect 202 0 201 0;
#X connect 203 0 202 0;
#X connect 204 0 205 0;
#X connect 205 0 201 0;
#X connect 206 0 208 0;
#X connect 207 0 209 0;
#X connect 208 0 201 0;
#X connect 209 0 201 0;
#X connect 210 0 211 1;
#X connect 211 0 214 0;
#X connect 211 1 210 0;
#X connect 212 0 201 0;
#X connect 214 0 201 0;
#X connect 214 0 201 1;
#X connect 215 0 214 1;
#X connect 216 0 217 0;
#X connect 216 0 220 0;
#X connect 217 0 205 0;
#X connect 217 0 219 0;
#X connect 218 0 217 1;
#X connect 219 0 222 1;
#X connect 220 0 225 0;
#X connect 221 0 222 0;
#X connect 222 0 223 0;
#X connect 224 0 220 1;
#X connect 225 0 221 0;
#X connect 225 0 202 0;
#X connect 226 0 215 0;
#X connect 227 0 226 0;
#X connect 228 0 192 1;
#X connect 229 0 230 0;
#X connect 230 0 224 0;
#X connect 231 0 232 0;
#X connect 232 0 218 0;
#X connect 233 0 197 0;
#X connect 233 0 251 0;
#X connect 234 0 192 1;
#X connect 235 0 251 0;
#X connect 236 0 228 0;
#X connect 237 0 251 0;
#X connect 238 0 215 0;
#X connect 239 0 215 0;
#X connect 240 0 192 0;
#X connect 241 0 215 0;
#X connect 242 0 215 0;
#X connect 243 0 252 0;
#X connect 244 0 240 0;
#X connect 245 0 261 0;
#X connect 248 0 246 0;
#X connect 249 0 247 0;
#X connect 250 0 251 0;
#X connect 251 0 195 0;
#X connect 252 0 216 0;
#X connect 254 0 260 0;
#X connect 255 0 259 0;
#X connect 256 0 258 0;
#X connect 256 0 255 0;
#X connect 257 0 256 0;
#X connect 260 0 255 0;
#X connect 261 0 200 0;
#X connect 262 0 233 0;
#X connect 263 0 198 0;
#X connect 264 0 234 0;
#X connect 265 0 251 0;
#X connect 266 0 290 0;
#X connect 266 0 313 0;
#X connect 267 0 266 1;
#X connect 268 0 266 2;
#X connect 269 0 266 3;
#X connect 270 0 307 3;
#X connect 271 0 307 1;
#X connect 272 0 130 0;
#X connect 273 0 130 0;
#X connect 275 0 282 0;
#X connect 276 0 280 0;
#X connect 276 0 281 0;
#X connect 277 0 279 0;
#X connect 277 0 276 0;
#X connect 278 0 277 0;
#X connect 281 0 284 0;
#X connect 282 0 276 0;
#X connect 283 0 276 0;
#X connect 285 0 308 3;
#X connect 286 0 308 1;
#X connect 287 0 308 2;
#X connect 288 0 309 3;
#X connect 289 0 310 3;
#X connect 290 0 271 0;
#X connect 290 0 293 0;
#X connect 290 0 270 0;
#X connect 290 0 307 0;
#X connect 291 0 294 0;
#X connect 291 0 297 0;
#X connect 291 0 288 0;
#X connect 291 0 309 0;
#X connect 292 0 295 0;
#X connect 292 0 296 0;
#X connect 292 0 289 0;
#X connect 292 0 310 0;
#X connect 293 0 307 2;
#X connect 294 0 309 1;
#X connect 295 0 310 1;
#X connect 296 0 310 2;
#X connect 297 0 309 2;
#X connect 299 0 311 3;
#X connect 301 0 302 0;
#X connect 301 0 303 0;
#X connect 301 0 299 0;
#X connect 301 0 311 0;
#X connect 302 0 311 1;
#X connect 303 0 311 2;
#X connect 307 0 291 0;
#X connect 307 0 325 0;
#X connect 309 0 292 0;
#X connect 309 0 326 0;
#X connect 310 0 301 0;
#X connect 310 0 327 0;
#X connect 311 0 328 0;
#X connect 313 0 329 0;
#X connect 315 0 313 1;
#X connect 316 0 313 1;
#X connect 316 0 325 1;
#X connect 317 0 313 1;
#X connect 317 0 326 1;
#X connect 318 0 313 1;
#X connect 318 0 327 1;
#X connect 319 0 313 1;
#X connect 319 0 328 1;
#X connect 320 0 313 1;
#X connect 321 0 313 1;
#X connect 321 0 325 1;
#X connect 322 0 313 1;
#X connect 322 0 326 1;
#X connect 323 0 313 1;
#X connect 323 0 327 1;
#X connect 324 0 313 1;
#X connect 324 0 328 1;
#X connect 325 0 330 0;
#X connect 326 0 331 0;
#X connect 327 0 332 0;
#X connect 328 0 333 0;
